# xmcd
#
# Track frame offsets:
#	150
#	13556
#	29351
#	47542
#	63205
#	73462
#	94489
#	105812
#	117880
#	137506
#	150410
#	166149
#	178773
#	194929
#	207860
#	223487
#	234718
#	243623
#	256415
#	269311
#
# Disc length: 3808 seconds
#
# Revision: 1
# Processed by: cddbd v1.5.1PL0 Copyright (c) Steve Scherf et al.
# Submitted via: dBpowerAMP V4.0
#
DISCID=270ede14
DTITLE=Willie Nelson and Waylon Jennings - Clean Shirt
DYEAR=2000
DGENRE=Country
TTITLE0=Do Right Woman, Do Right Man
TTITLE1=Always On My Mind
TTITLE2=Whiter Shade Of Pale
TTITLE3=Let It Be Me
TTITLE4=Staring Each Other Down
TTITLE5=Bridge Over Troubled Water
TTITLE6=Old Fords And A Natural Stone
TTITLE7=Permanently Lonely
TTITLE8=Last Thing I Needed First Thing This Morning
TTITLE9=The Party's Over
TTITLE10=If I Can Find A Clean Shirt
TTITLE11=I Could Write A Book About You
TTITLE12=Old Age And Treachery
TTITLE13=Two Old Sidewinders
TTITLE14=Tryin' To Outrun The Wind
TTITLE15=The Good Ol' Nights
TTITLE16=Guitars That Won't Stay In Tune
TTITLE17=The Making Of A Song
TTITLE18=Put Me On A Train Back To Texas
TTITLE19=Rocks From Rolling Stones
EXTD=
EXTT0=
EXTT1=
EXTT2=
EXTT3=
EXTT4=
EXTT5=
EXTT6=
EXTT7=
EXTT8=
EXTT9=
EXTT10=
EXTT11=
EXTT12=
EXTT13=
EXTT14=
EXTT15=
EXTT16=
EXTT17=
EXTT18=
EXTT19=
PLAYORDER=
